# xmcd CD database file
#
# Track frame offsets:
#	150
#	14313
#	26993
#	40115
#	52588
#	65479
#	76617
#	86570
#	98051
#	117057
#	131332
#	144228
#	155767
#	170773
#	182828
#
# Disc length: 2631 seconds
#
# Revision: 0
# Processed by: cddbd v1.5.2PL0 Copyright (c) Steve Scherf et al.
# Submitted via: CDex 1.51
#
DISCID=b60a450f
DTITLE=Orquesta Aragon - The 70th Anniversary Album CD3
DYEAR=2009
DGENRE=Salsa
TTITLE0=Ay José
TTITLE1=Oye Me Voy Para La Luna
TTITLE2=Odio Y Rencor
TTITLE3=Que Es Lo Que Tu Quieres
TTITLE4=Con Tranquilidad
TTITLE5=No Puedes Dejarme
TTITLE6=Te Doy Calabazas
TTITLE7=La Chaucha
TTITLE8=Fefita
TTITLE9=No Me Persigas
TTITLE10=Angoa
TTITLE11=Ya No Tienes Corazón
TTITLE12=Maricusa Y Las Bermudas
TTITLE13=Lo Decidió
TTITLE14=Los Tiñosos
EXTD=YEAR: 2009
EXTT0=
EXTT1=
EXTT2=
EXTT3=
EXTT4=
EXTT5=
EXTT6=
EXTT7=
EXTT8=
EXTT9=
EXTT10=
EXTT11=
EXTT12=
EXTT13=
EXTT14=
PLAYORDER=
